<?xml version="1.0" encoding="UTF-8"?>
<svg id="Layer_1" data-name="Layer 1" xmlns="http://www.w3.org/2000/svg" viewBox="0 0 425.2 425.2">
  <defs>
    <style>
      .cls-1 {
        fill: #394b56;
      }

      .cls-1, .cls-2 {
        stroke-width: 0px;
      }

      .cls-2 {
        fill: #00a5e3;
      }
    </style>
  </defs>
  <g>
    <path class="cls-1" d="m85.25,243.33v7.62h-1.23v-7.62h1.23Z"/>
    <path class="cls-1" d="m94.85,250.95h-1.23l-3.7-5.62v5.62h-1.23v-7.61h1.23l3.7,5.64v-5.64h1.23v7.61Z"/>
    <path class="cls-1" d="m103.18,243.33v.99h-2.13v6.63h-1.24v-6.63h-2.12v-.99h5.48Z"/>
    <path class="cls-1" d="m107.27,244.32v2.31h2.81v.95h-2.81v2.36h3.13v1h-4.36v-7.62h4.36v.99h-3.13Z"/>
    <path class="cls-1" d="m119.29,243.93c.6.45,1,1.05,1.2,1.82h-1.29c-.17-.41-.44-.74-.81-.98-.38-.24-.83-.37-1.34-.37-.47,0-.9.11-1.28.33-.38.22-.67.54-.88.95-.21.41-.32.89-.32,1.45,0,.58.11,1.08.32,1.5.22.42.52.74.91.96.39.22.85.33,1.37.33.63,0,1.18-.2,1.63-.59.45-.39.73-.93.82-1.61h-2.8v-.91h3.83v1.18c-.09.56-.29,1.07-.6,1.53-.31.46-.73.82-1.24,1.1-.51.27-1.1.41-1.76.41-.74,0-1.4-.17-1.96-.5-.57-.33-1.01-.79-1.32-1.38-.31-.59-.46-1.26-.46-2.01s.15-1.43.46-2.01c.31-.59.75-1.04,1.31-1.37.56-.33,1.22-.49,1.96-.49.91,0,1.66.22,2.27.67Z"/>
    <path class="cls-1" d="m127.83,250.95l-1.9-3.04h-.87v3.04h-1.23v-7.62h2.69c.87,0,1.53.21,1.98.64.45.42.67.99.67,1.68,0,.6-.17,1.09-.5,1.47-.33.38-.82.63-1.45.73l2,3.1h-1.38Zm-2.77-3.92h1.36c.99,0,1.49-.44,1.49-1.32,0-.42-.12-.74-.36-.98-.24-.23-.62-.35-1.13-.35h-1.36v2.64Z"/>
    <path class="cls-1" d="m136.76,249.3h-3.22l-.58,1.65h-1.32l2.81-7.5h1.41l2.8,7.5h-1.32l-.58-1.65Zm-.35-.95l-1.26-3.56-1.26,3.56h2.53Z"/>
    <path class="cls-1" d="m146.42,243.33v.99h-2.13v6.63h-1.24v-6.63h-2.12v-.99h5.48Z"/>
    <path class="cls-1" d="m150.51,244.32v2.31h2.81v.95h-2.81v2.36h3.13v1h-4.36v-7.62h4.36v.99h-3.13Z"/>
    <path class="cls-1" d="m162.85,249.14c-.31.57-.77,1.02-1.37,1.33-.6.32-1.32.47-2.15.47h-2.55v-7.62h2.55c.83,0,1.55.16,2.15.47.6.31,1.06.75,1.37,1.32.31.57.47,1.24.47,2.01s-.16,1.44-.47,2.01Zm-1.52-.02c.49-.48.73-1.14.73-2s-.24-1.52-.73-2c-.49-.48-1.19-.71-2.1-.71h-1.22v5.42h1.22c.91,0,1.62-.24,2.1-.71Z"/>
    <path class="cls-1" d="m175.47,243.33v.99h-3.27v2.36h2.7v.95h-2.7v3.31h-1.23v-7.62h4.5Z"/>
    <path class="cls-1" d="m183.06,249.3h-3.22l-.58,1.65h-1.32l2.81-7.5h1.41l2.79,7.5h-1.32l-.58-1.65Zm-.35-.95l-1.26-3.56-1.26,3.56h2.53Z"/>
    <path class="cls-1" d="m193.55,243.96c.62.47,1.04,1.12,1.25,1.93h-1.31c-.18-.46-.47-.83-.86-1.1-.39-.27-.87-.4-1.44-.4-.45,0-.86.11-1.21.33-.36.22-.64.54-.84.96-.21.41-.31.9-.31,1.45s.1,1.03.31,1.44c.2.41.49.73.84.95.36.22.76.33,1.21.33.57,0,1.05-.13,1.44-.4.39-.27.68-.63.86-1.08h1.31c-.22.81-.63,1.46-1.25,1.93-.62.47-1.4.71-2.33.71-.72,0-1.36-.16-1.91-.49-.55-.33-.98-.78-1.28-1.37-.3-.59-.45-1.26-.45-2.01s.15-1.43.45-2.01c.3-.59.73-1.04,1.28-1.38.55-.33,1.19-.5,1.91-.5.94,0,1.71.24,2.33.71Z"/>
    <path class="cls-1" d="m199.2,243.33v7.62h-1.23v-7.62h1.23Z"/>
    <path class="cls-1" d="m203.87,249.99h2.63v.96h-3.86v-7.62h1.23v6.66Z"/>
    <path class="cls-1" d="m210.63,243.33v7.62h-1.23v-7.62h1.23Z"/>
    <path class="cls-1" d="m218.96,243.33v.99h-2.13v6.63h-1.24v-6.63h-2.12v-.99h5.48Z"/>
    <path class="cls-1" d="m223.06,243.33v7.62h-1.23v-7.62h1.23Z"/>
    <path class="cls-1" d="m227.72,244.32v2.31h2.81v.95h-2.81v2.36h3.13v1h-4.36v-7.62h4.36v.99h-3.13Z"/>
    <path class="cls-1" d="m238.73,249.96c-.18.32-.45.58-.82.77-.37.19-.82.29-1.35.29s-.98-.09-1.39-.28c-.41-.18-.74-.44-.98-.77-.24-.33-.39-.71-.42-1.14h1.32c.04.33.18.62.43.85.25.24.58.36,1,.36.37,0,.66-.1.87-.3.2-.2.31-.46.31-.78,0-.27-.08-.5-.23-.67-.15-.18-.34-.31-.56-.42-.22-.1-.53-.22-.92-.35-.48-.15-.86-.3-1.16-.45-.3-.15-.55-.37-.76-.66-.21-.29-.31-.67-.31-1.13,0-.41.1-.77.3-1.08.2-.31.49-.55.86-.72.37-.17.81-.25,1.3-.25.78,0,1.39.19,1.85.56.46.37.72.86.78,1.47h-1.33c-.05-.29-.19-.53-.4-.74-.22-.2-.52-.31-.9-.31-.35,0-.62.09-.83.26-.21.18-.31.43-.31.76,0,.26.07.47.22.64.14.17.33.3.54.4.22.1.52.21.9.34.48.15.88.3,1.18.46.31.15.56.38.78.67.21.29.32.68.32,1.17,0,.37-.09.72-.27,1.04Z"/>
    <path class="cls-1" d="m254.54,243.45v7.5h-1.24v-5.62l-2.17,5.62h-1.08l-2.18-5.62v5.62h-1.23v-7.5h1.49l2.48,5.99,2.44-5.99h1.49Z"/>
    <path class="cls-1" d="m262.5,249.3h-3.22l-.58,1.65h-1.32l2.81-7.5h1.41l2.79,7.5h-1.32l-.58-1.65Zm-.35-.95l-1.26-3.56-1.26,3.56h2.53Z"/>
    <path class="cls-1" d="m273.42,250.95h-1.23l-3.7-5.62v5.62h-1.23v-7.61h1.23l3.7,5.64v-5.64h1.23v7.61Z"/>
    <path class="cls-1" d="m281.4,249.3h-3.22l-.58,1.65h-1.32l2.81-7.5h1.41l2.8,7.5h-1.32l-.58-1.65Zm-.35-.95l-1.26-3.56-1.26,3.56h2.53Z"/>
    <path class="cls-1" d="m291.91,243.93c.61.45,1,1.05,1.2,1.82h-1.29c-.17-.41-.44-.74-.81-.98-.38-.24-.83-.37-1.34-.37-.47,0-.9.11-1.28.33-.38.22-.67.54-.89.95-.21.41-.32.89-.32,1.45,0,.58.11,1.08.32,1.5.22.42.52.74.91.96.39.22.85.33,1.37.33.63,0,1.18-.2,1.63-.59.45-.39.73-.93.82-1.61h-2.8v-.91h3.83v1.18c-.09.56-.29,1.07-.6,1.53-.31.46-.73.82-1.24,1.1-.51.27-1.1.41-1.76.41-.74,0-1.4-.17-1.96-.5-.57-.33-1.01-.79-1.32-1.38-.31-.59-.46-1.26-.46-2.01s.15-1.43.46-2.01c.31-.59.75-1.04,1.31-1.37.56-.33,1.22-.49,1.96-.49.91,0,1.66.22,2.27.67Z"/>
    <path class="cls-1" d="m297.67,244.32v2.31h2.81v.95h-2.81v2.36h3.13v1h-4.36v-7.62h4.36v.99h-3.13Z"/>
    <path class="cls-1" d="m311.84,243.45v7.5h-1.24v-5.62l-2.17,5.62h-1.08l-2.18-5.62v5.62h-1.23v-7.5h1.49l2.48,5.99,2.44-5.99h1.49Z"/>
    <path class="cls-1" d="m316.49,244.32v2.31h2.81v.95h-2.81v2.36h3.13v1h-4.36v-7.62h4.36v.99h-3.13Z"/>
    <path class="cls-1" d="m328.92,250.95h-1.23l-3.7-5.62v5.62h-1.23v-7.61h1.23l3.7,5.64v-5.64h1.23v7.61Z"/>
    <path class="cls-1" d="m337.26,243.33v.99h-2.13v6.63h-1.24v-6.63h-2.12v-.99h5.48Z"/>
  </g>
  <g>
    <path class="cls-1" d="m118.37,211.43c1.74,1.7,2.61,4.02,2.61,7.05v13.64h-5.84v-12.56c0-3.44-1.82-5.26-4.52-5.26-2.94,0-4.97,2.11-4.97,5.43v12.39h-5.84v-12.52c0-3.36-1.78-5.3-4.56-5.3s-4.93,2.11-4.93,5.47v12.35h-5.84v-22.59h5.72v3.23c1.28-2.36,3.94-3.9,6.88-3.85,2.82,0,5.43,1.37,6.63,3.98,1.66-2.49,4.72-3.98,8.08-3.98,2.7,0,4.89.83,6.59,2.53Z"/>
    <path class="cls-1" d="m128.19,212.39c2.28-2.32,5.18-3.48,8.7-3.48s6.42,1.16,8.7,3.48c2.28,2.28,3.4,5.1,3.4,8.41s-1.12,6.17-3.4,8.45c-2.28,2.28-5.18,3.44-8.7,3.44s-6.42-1.16-8.7-3.44c-2.28-2.28-3.4-5.1-3.4-8.45s1.12-6.13,3.4-8.41Zm8.7,14.88c1.78,0,3.23-.62,4.43-1.86,1.2-1.29,1.82-2.82,1.82-4.6s-.62-3.32-1.82-4.56c-1.2-1.24-2.65-1.86-4.43-1.86s-3.27.62-4.48,1.86c-1.2,1.24-1.78,2.78-1.78,4.56s.58,3.32,1.78,4.6c1.2,1.24,2.69,1.86,4.48,1.86Z"/>
    <path class="cls-1" d="m169.06,230.79c-1.87,1.24-4.06,1.86-6.67,1.86-5.18,0-7.88-3.07-7.88-8.91v-9.32h-3.69v-4.89h3.73v-8h5.8v8h7.46v4.89h-7.46v8.95c0,2.65,1.08,3.98,3.19,3.98,1.12,0,2.4-.37,3.77-1.16l1.74,4.6Z"/>
    <path class="cls-1" d="m188.7,209.53h5.55v22.59h-5.55v-2.61c-1.95,2.11-4.35,3.15-7.21,3.15-3.23,0-5.93-1.12-8.04-3.4-2.11-2.28-3.15-5.14-3.15-8.54s1.08-6.22,3.19-8.41c2.11-2.24,4.81-3.36,8-3.36,2.82,0,5.22,1.08,7.21,3.27v-2.69Zm-1.74,6.67c-1.2-1.29-2.69-1.91-4.52-1.91s-3.36.62-4.56,1.91c-1.16,1.28-1.74,2.82-1.74,4.6s.58,3.36,1.78,4.64c1.2,1.28,2.69,1.91,4.52,1.91s3.32-.62,4.52-1.91c1.2-1.28,1.82-2.82,1.82-4.64s-.62-3.32-1.82-4.6Z"/>
    <path class="cls-1" d="m214.35,232.11l-7.46-9.66-1.53,1.37v8.29h-5.84v-31.5h5.84v16.62l8.21-7.71h7.38l-10.07,9.24,10.65,13.35h-7.17Z"/>
    <path class="cls-1" d="m239.3,209.53h5.55v22.59h-5.55v-2.61c-1.95,2.11-4.35,3.15-7.21,3.15-3.23,0-5.93-1.12-8.04-3.4-2.11-2.28-3.15-5.14-3.15-8.54s1.08-6.22,3.19-8.41c2.11-2.24,4.81-3.36,8-3.36,2.82,0,5.22,1.08,7.21,3.27v-2.69Zm-1.74,6.67c-1.2-1.29-2.69-1.91-4.52-1.91s-3.36.62-4.56,1.91c-1.16,1.28-1.74,2.82-1.74,4.6s.58,3.36,1.78,4.64c1.2,1.28,2.69,1.91,4.52,1.91s3.32-.62,4.52-1.91c1.2-1.28,1.82-2.82,1.82-4.64s-.62-3.32-1.82-4.6Z"/>
    <path class="cls-1" d="m284.02,211.43c1.74,1.7,2.61,4.02,2.61,7.05v13.64h-5.84v-12.56c0-3.44-1.82-5.26-4.52-5.26-2.94,0-4.97,2.11-4.97,5.43v12.39h-5.84v-12.52c0-3.36-1.78-5.3-4.56-5.3s-4.93,2.11-4.93,5.47v12.35h-5.84v-22.59h5.72v3.23c1.29-2.36,3.94-3.9,6.88-3.85,2.82,0,5.43,1.37,6.63,3.98,1.66-2.49,4.73-3.98,8.08-3.98,2.69,0,4.89.83,6.59,2.53Z"/>
    <rect class="cls-1" x="291.73" y="209.53" width="5.84" height="22.59"/>
    <path class="cls-1" d="m308.64,232.11h-5.84v-31.5h5.84v31.5Z"/>
    <path class="cls-1" d="m331.1,209.53h5.55v22.59h-5.55v-2.61c-1.95,2.11-4.35,3.15-7.21,3.15-3.23,0-5.93-1.12-8.04-3.4-2.11-2.28-3.15-5.14-3.15-8.54s1.08-6.22,3.19-8.41c2.11-2.24,4.81-3.36,8-3.36,2.82,0,5.22,1.08,7.21,3.27v-2.69Zm-1.74,6.67c-1.2-1.29-2.69-1.91-4.52-1.91s-3.36.62-4.56,1.91c-1.16,1.28-1.74,2.82-1.74,4.6s.58,3.36,1.78,4.64c1.2,1.28,2.69,1.91,4.52,1.91s3.32-.62,4.52-1.91c1.2-1.28,1.82-2.82,1.82-4.64s-.62-3.32-1.82-4.6Z"/>
  </g>
  <g>
    <path class="cls-2" d="m292.28,177.49c-1.19-1.19-1.19-3.28,0-4.44,1.19-1.19,3.28-1.19,4.47,0,1.19,1.15,1.19,3.24,0,4.44-1.19,1.19-3.28,1.19-4.47,0Z"/>
    <path class="cls-2" d="m276.5,177.16s-.07.05-.11.08c-3.26,2.12-5.75,3.5-8.94,5.27-9.01,5-16.06,7.73-21.15,8.17-3.22.28-5.6-.57-7.11-2.56-1.52-1.99-2.71-5.81-3.59-11.48-.41-2.41-.91-4.68-1.52-6.81-.61-2.13-1.16-3.61-1.65-4.45-1.35-1.91-3.42-2.74-6.19-2.5-4.78.42-11.13,3.89-19.05,10.4-3.58,3.3-5.84,4.99-6.78,5.07-.38.03-.64-.15-.77-.56-.13-.41-.23-1.01-.3-1.81-.23-2.66-1.03-4.6-2.38-5.84-1.35-1.24-3.11-1.76-5.27-1.57-2.77.24-6.07,1.68-9.89,4.31l-5.46,3.81.31-2.32c.3-1.36,2.55-10.48,2.47-11.43-.06-.72-.31-1.27-.75-1.66-.44-.38-1.2-.53-2.3-.43-.83.07-1.54.34-2.11.79-.57.45-1.12,1.33-1.66,2.64-.54,1.31-3.3,11.2-4.02,13.75-.71,2.55-1.31,4.88-1.79,6.99-.48,2.11-.7,3.43-.66,3.96.16,1.4.92,2.04,2.29,1.92,2.54-.22,6.58-2.82,12.11-7.78,2.19-2.11,4.13-3.88,5.81-5.33,1.69-1.45,2.71-2.19,3.05-2.22.38-.03.71.61.97,1.92.27,1.32.53,2.79.79,4.41.38,2.57.69,4.17.94,4.8.66,1.36,1.82,1.96,3.49,1.82,2.7-.24,6.32-2.31,10.87-6.24,9.5-8.07,15.34-12.2,17.5-12.39.76-.07,1.3.44,1.63,1.52.32,1.08.62,3.2.9,6.35.64,7.29,2.45,12.85,5.43,16.68,2.76,3.58,6.97,5.12,12.63,4.63,6.46-.57,14.53-3.47,24.23-8.7,3.86-2.09,7.87-4.57,11.94-7.27h0s.53-.32,1.48-.93c-1.66-1.76-4.65-2.65-5.38-5Z"/>
    <path class="cls-2" d="m274.86,186.5c-1.7,1.02-3.89.46-4.91-1.23h0c-1.02-1.7-.46-3.89,1.23-4.91l6.98-4.18c1.7-1.02,3.89-.46,4.91,1.23h0c1.02,1.7.46,3.89-1.23,4.91l-6.98,4.18Z"/>
  </g>
</svg>