<?xml version="1.0" encoding="UTF-8"?>
<svg id="Layer_1" data-name="Layer 1" xmlns="http://www.w3.org/2000/svg" viewBox="0 0 425.2 425.2">
  <defs>
    <style>
      .cls-1 {
        fill: #fff;
      }

      .cls-1, .cls-2 {
        stroke-width: 0px;
      }

      .cls-2 {
        fill: #00a5e3;
      }
    </style>
  </defs>
  <g>
    <path class="cls-2" d="m292.28,166.49c-1.19-1.19-1.19-3.28,0-4.44,1.19-1.19,3.28-1.19,4.47,0,1.19,1.15,1.19,3.25,0,4.44-1.19,1.19-3.28,1.19-4.47,0Z"/>
    <path class="cls-2" d="m276.5,166.16s-.07.05-.11.08c-3.26,2.12-5.75,3.5-8.94,5.27-9.01,5-16.06,7.73-21.15,8.17-3.22.28-5.6-.57-7.11-2.56-1.52-1.99-2.71-5.81-3.59-11.48-.41-2.41-.91-4.68-1.52-6.81-.61-2.13-1.16-3.61-1.65-4.45-1.35-1.91-3.42-2.74-6.19-2.5-4.78.42-11.13,3.89-19.05,10.4-3.58,3.3-5.84,4.99-6.78,5.07-.38.03-.64-.15-.77-.56-.13-.41-.23-1.01-.3-1.81-.23-2.66-1.03-4.6-2.38-5.84-1.35-1.24-3.11-1.76-5.27-1.57-2.77.24-6.07,1.68-9.89,4.31l-5.46,3.81.31-2.32c.3-1.36,2.55-10.48,2.47-11.43-.06-.72-.31-1.27-.75-1.66-.44-.38-1.2-.53-2.3-.43-.83.07-1.54.34-2.11.79-.57.45-1.12,1.33-1.66,2.64-.54,1.31-3.3,11.2-4.02,13.75-.71,2.55-1.31,4.88-1.79,6.99-.48,2.11-.7,3.43-.66,3.96.16,1.4.92,2.04,2.29,1.92,2.54-.22,6.58-2.82,12.11-7.78,2.19-2.11,4.13-3.88,5.81-5.33,1.69-1.45,2.71-2.19,3.05-2.22.38-.03.71.61.97,1.92.27,1.32.53,2.79.79,4.41.38,2.57.69,4.17.94,4.8.66,1.36,1.82,1.96,3.49,1.82,2.7-.24,6.32-2.31,10.87-6.24,9.5-8.07,15.34-12.2,17.5-12.39.76-.07,1.3.44,1.63,1.52.32,1.08.62,3.2.9,6.35.64,7.29,2.45,12.85,5.43,16.68,2.76,3.58,6.97,5.12,12.63,4.63,6.46-.57,14.53-3.47,24.23-8.7,3.86-2.08,7.87-4.57,11.94-7.27h0s.53-.32,1.48-.93c-1.66-1.76-4.65-2.65-5.38-5Z"/>
    <path class="cls-2" d="m274.86,175.5c-1.7,1.02-3.89.46-4.91-1.23h0c-1.02-1.7-.46-3.89,1.23-4.91l6.98-4.18c1.7-1.02,3.89-.46,4.91,1.23h0c1.02,1.7.46,3.89-1.23,4.91l-6.98,4.18Z"/>
  </g>
  <g>
    <path class="cls-1" d="m96.21,258.74h-1.54v2.88h-5.79c-2.72,0-4.04-1.31-4.04-3.89v-2.77h1.67v2.6c0,1.74,1.1,2.4,2.72,2.4h3.76v-1.49h-.61c-2.42,0-4.05-1.23-4.05-3.4h0c0-2.23,1.7-3.71,4.27-3.71h2.06v5.71h1.54v1.67Zm-3.21-1.67v-4.05h-.76c-1.35,0-2.34.76-2.34,2.04h0c0,1.25.99,2.01,2.34,2.01h.76Zm-2.77-8c0-.5.4-.85.93-.85s.91.35.91.85c0,.55-.43.86-.91.86s-.93-.31-.93-.86Zm2.43,0c0-.5.41-.85.93-.85s.91.35.91.85c0,.55-.43.86-.91.86s-.93-.31-.93-.86Z"/>
    <path class="cls-1" d="m95.94,257.07h2.35v1.67h-2.35v-1.67Z"/>
    <path class="cls-1" d="m98.03,257.07h2.35v1.67h-2.35v-1.67Z"/>
    <path class="cls-1" d="m100.12,257.07h2.35v1.67h-2.35v-1.67Z"/>
    <path class="cls-1" d="m109.63,251.36v7.38h-7.42v-1.67h1.63c-.35-.56-.55-1.23-.55-2h0c0-2.23,1.7-3.71,4.27-3.71h2.06Zm-1.66,5.71v-4.05h-.76c-1.36,0-2.34.76-2.34,2.04h0c0,1.25.98,2.01,2.34,2.01h.76Zm-1.28-8.07c0-.52.42-.86.94-.86s.93.34.93.86c0,.55-.44.86-.93.86s-.94-.31-.94-.86Z"/>
    <path class="cls-1" d="m111.56,248.15h1.66v10.6h-1.66v-10.6Z"/>
    <path class="cls-1" d="m119.45,258.74h-1.48c-.08,2.22-.99,2.88-2.69,2.88-.37,0-.73-.04-1.06-.12l-.17-1.45c.43.04.72.07,1.06.07.71,0,1.19-.37,1.19-1.4v-7.36h1.67v5.71h1.48v1.67Z"/>
    <path class="cls-1" d="m119.18,257.07h2.35v1.67h-2.35v-1.67Z"/>
    <path class="cls-1" d="m121.27,257.07h2.35v1.67h-2.35v-1.67Z"/>
    <path class="cls-1" d="m123.36,257.07h2.35v1.67h-2.35v-1.67Z"/>
    <path class="cls-1" d="m134.98,258.74h-1.91c-.64.9-1.69,1.44-2.97,1.44h-.01c-1.29,0-2.34-.54-2.99-1.44h-1.65v-1.67h.99c-.04-.25-.07-.52-.07-.8h0c0-2.42,1.49-4.02,3.71-4.02h.01c2.21,0,3.68,1.61,3.68,4.01h0c0,.29-.03.56-.07.81h1.25v1.67Zm-2.86-2.52c0-1.38-.8-2.3-2.01-2.3h-.01c-1.23,0-2.04.91-2.04,2.3h0c0,1.38.81,2.29,2.04,2.29h.01c1.22,0,2.01-.91,2.01-2.27h0Z"/>
    <path class="cls-1" d="m134.71,257.07h2.35v1.67h-2.35v-1.67Z"/>
    <path class="cls-1" d="m136.8,257.07h2.35v1.67h-2.35v-1.67Z"/>
    <path class="cls-1" d="m138.89,257.07h2.35v1.67h-2.35v-1.67Z"/>
    <path class="cls-1" d="m144.05,248.15v10.6h-3.07v-1.67h1.41v-8.92h1.66Z"/>
    <path class="cls-1" d="m146.03,247.74c0-.8.56-1.33,1.4-1.33h.33v.91h-.43c-.18,0-.31.13-.31.33v.16h1.05v.98h-2.03v-1.04Zm.17,1.96h1.66v9.04h-1.66v-9.04Z"/>
    <path class="cls-1" d="m158.23,250.71v8.04h-2.29c-2.42,0-4.05-1.46-4.05-3.67h0c0-2.23,1.7-3.71,4.27-3.71h.41v-.65h1.66Zm-1.66,2.31h-.76c-1.36,0-2.34.76-2.34,2.04h0c0,1.25.98,2.01,2.34,2.01h.76v-4.05Zm-2.76-4.27c0-.5.41-.85.93-.85s.91.35.91.85c0,.55-.43.86-.91.86s-.93-.31-.93-.86Zm2.43,0c0-.5.41-.85.93-.85s.91.35.91.85c0,.55-.43.86-.91.86s-.93-.31-.93-.86Z"/>
    <path class="cls-1" d="m159,261.5l-.17-1.45c.43.04.72.07,1.06.07.71,0,1.19-.37,1.19-1.4v-7.36h1.67v7.08c0,2.47-.91,3.18-2.69,3.18-.37,0-.73-.04-1.06-.12Z"/>
    <path class="cls-1" d="m164.68,248.15h1.66v10.6h-1.66v-10.6Z"/>
    <path class="cls-1" d="m167.75,257.07h4.61v-2.25c0-1.21-.59-1.8-1.74-1.8h-.56v-1.66h.33c2.44,0,3.54,1.23,3.54,3.62v3.76h-6.18v-1.67Z"/>
    <path class="cls-1" d="m174.95,257.07h3.78c1.36,0,2.16-.67,2.16-1.88v-8.01h1.66v7.88c0,2.44-1.33,3.68-4.01,3.68h-3.24l-.34-1.67Zm1.74,3.79c0-.8.56-1.33,1.4-1.33h.48v.91h-.59c-.18,0-.31.13-.31.33v.16h1.2v.98h-2.18v-1.04Zm.07-11.51h1.67v6.83h-1.67v-6.83Z"/>
    <path class="cls-1" d="m186.56,254.85v-2.39h1.67v2.22c0,1.7,1.05,2.39,2.72,2.39h3.32v-5.71h1.67v7.38h-5.34c-2.76,0-4.04-1.37-4.04-3.89Zm2.76-5.33c0-.5.41-.85.93-.85s.91.35.91.85c0,.55-.43.86-.91.86s-.93-.31-.93-.86Zm2.43,0c0-.5.41-.85.93-.85s.91.35.91.85c0,.55-.43.86-.91.86s-.93-.31-.93-.86Z"/>
    <path class="cls-1" d="m201.08,257.07v1.67h-3.2v-10.6h1.66v8.92h1.54Z"/>
    <path class="cls-1" d="m200.82,257.07h2.35v1.67h-2.35v-1.67Z"/>
    <path class="cls-1" d="m202.91,257.07h2.35v1.67h-2.35v-1.67Z"/>
    <path class="cls-1" d="m205,257.07h2.35v1.67h-2.35v-1.67Z"/>
    <path class="cls-1" d="m215.42,256.26h0c0,2.35-1.48,3.92-3.68,3.92h-.01c-1.29,0-2.34-.54-2.99-1.44h-1.65v-1.67h.99c-.04-.25-.07-.52-.07-.8h0c0-2.42,1.49-4.02,3.71-4.02h.01c2.21,0,3.68,1.61,3.68,4.01Zm-1.67-.04c0-1.38-.8-2.3-2.01-2.3h-.01c-1.23,0-2.04.91-2.04,2.3h0c0,1.38.81,2.29,2.04,2.29h.01c1.22,0,2.01-.91,2.01-2.27h0Z"/>
    <path class="cls-1" d="m223.99,257.07v1.67h-7.72v-1.67h4.61v-2.25c0-1.21-.59-1.8-1.74-1.8h-.56v-1.66h.33c2.44,0,3.54,1.23,3.54,3.62v2.09h1.54Z"/>
    <path class="cls-1" d="m223.72,257.07h2.35v1.67h-2.35v-1.67Z"/>
    <path class="cls-1" d="m225.81,257.07h2.35v1.67h-2.35v-1.67Z"/>
    <path class="cls-1" d="m227.9,257.07h2.35v1.67h-2.35v-1.67Z"/>
    <path class="cls-1" d="m238.29,257.07v1.67h-8.3v-1.67h5.2c.17-.63.27-1.4.27-2,0-1.44-.85-2.3-2.18-2.3-.74,0-1.28.16-2.05.63l-.6-1.53c.93-.48,1.82-.77,2.76-.77,2.39,0,3.65,1.54,3.65,4.05,0,.61-.08,1.28-.2,1.92h1.45Zm-5.83-8.34c0-.52.42-.86.94-.86s.93.34.93.86c0,.55-.44.86-.93.86s-.94-.31-.94-.86Z"/>
    <path class="cls-1" d="m238.02,257.07h2.35v1.67h-2.35v-1.67Z"/>
    <path class="cls-1" d="m240.11,257.07h2.35v1.67h-2.35v-1.67Z"/>
    <path class="cls-1" d="m242.2,257.07h2.35v1.67h-2.35v-1.67Z"/>
    <path class="cls-1" d="m247.36,248.15v10.6h-3.07v-1.67h1.41v-8.92h1.66Z"/>
    <path class="cls-1" d="m249.52,248.15h1.66v10.6h-1.66v-10.6Z"/>
    <path class="cls-1" d="m263.08,257.07v1.67h-3.83c-2.42,0-4.05-1.46-4.05-3.67h0c0-2.23,1.7-3.71,4.27-3.71h.4v-.65h1.66v6.36h1.54Zm-3.2-4.05h-.76c-1.36,0-2.34.76-2.34,2.04h0c0,1.25.98,2.01,2.34,2.01h.76v-4.05Zm-2.76-4.27c0-.5.41-.85.93-.85s.91.35.91.85c0,.55-.43.86-.91.86s-.93-.31-.93-.86Zm2.43,0c0-.5.41-.85.93-.85s.91.35.91.85c0,.55-.43.86-.91.86s-.93-.31-.93-.86Z"/>
    <path class="cls-1" d="m262.82,257.07h2.35v1.67h-2.35v-1.67Z"/>
    <path class="cls-1" d="m269.65,257.07v1.67h-4.74v-1.67h1.41v-8.92h1.66v8.92h1.67Z"/>
    <path class="cls-1" d="m269.38,257.07h2.35v1.67h-2.35v-1.67Z"/>
    <path class="cls-1" d="m271.47,257.07h2.35v1.67h-2.35v-1.67Z"/>
    <path class="cls-1" d="m273.56,257.07h2.35v1.67h-2.35v-1.67Z"/>
    <path class="cls-1" d="m283.99,256.26h0c0,2.35-1.48,3.92-3.68,3.92h-.01c-1.29,0-2.34-.54-2.99-1.44h-1.65v-1.67h.99c-.04-.25-.07-.52-.07-.8h0c0-2.42,1.49-4.02,3.71-4.02h.01c2.21,0,3.68,1.61,3.68,4.01Zm-1.67-.04c0-1.38-.8-2.3-2.01-2.3h-.01c-1.23,0-2.04.91-2.04,2.3h0c0,1.38.81,2.29,2.04,2.29h.01c1.22,0,2.01-.91,2.01-2.27h0Z"/>
    <path class="cls-1" d="m288.79,257.07v1.67h-3.2v-10.6h1.66v8.92h1.54Z"/>
    <path class="cls-1" d="m288.53,257.07h2.35v1.67h-2.35v-1.67Z"/>
    <path class="cls-1" d="m290.61,257.07h2.35v1.67h-2.35v-1.67Z"/>
    <path class="cls-1" d="m292.7,257.07h2.35v1.67h-2.35v-1.67Z"/>
    <path class="cls-1" d="m294.79,257.07h2.35v1.67h-2.35v-1.67Z"/>
    <path class="cls-1" d="m306.64,257.07v1.67h-9.76v-1.67h6.53v-1.78c0-1.14-.64-1.69-1.67-1.69h-3.63c-.26-.37-.52-.95-.54-1.66l1.97-3.8h2.04l-2.14,3.8h2.1c2.35,0,3.55,1.15,3.55,3.62v1.5h1.54Z"/>
    <path class="cls-1" d="m306.37,257.07h2.35v1.67h-2.35v-1.67Z"/>
    <path class="cls-1" d="m308.46,257.07h2.35v1.67h-2.35v-1.67Z"/>
    <path class="cls-1" d="m310.55,257.07h2.35v1.67h-2.35v-1.67Z"/>
    <path class="cls-1" d="m312.63,257.07h2.06v-5.71h1.66v5.71h2.33v1.67h-6.05v-1.67Zm.77-8c0-.5.41-.85.93-.85s.91.35.91.85c0,.55-.43.86-.91.86s-.93-.31-.93-.86Zm2.43,0c0-.5.41-.85.93-.85s.91.35.91.85c0,.55-.43.86-.91.86s-.93-.31-.93-.86Z"/>
    <path class="cls-1" d="m318.43,257.07h2.35v1.67h-2.35v-1.67Z"/>
    <path class="cls-1" d="m320.52,257.07h2.35v1.67h-2.35v-1.67Z"/>
    <path class="cls-1" d="m322.6,257.07h2.35v1.67h-2.35v-1.67Z"/>
    <path class="cls-1" d="m333.03,256.26h0c0,2.35-1.48,3.92-3.68,3.92h-.01c-1.29,0-2.34-.54-2.99-1.44h-1.65v-1.67h.99c-.04-.25-.07-.52-.07-.8h0c0-2.42,1.49-4.02,3.71-4.02h.01c2.21,0,3.68,1.61,3.68,4.01Zm-1.67-.04c0-1.38-.8-2.3-2.01-2.3h-.01c-1.23,0-2.04.91-2.04,2.3h0c0,1.38.81,2.29,2.04,2.29h.01c1.22,0,2.01-.91,2.01-2.27h0Z"/>
  </g>
  <g>
    <path class="cls-1" d="m112.09,228.53v6.05h-13.86c-8.75,0-14.66-5.3-14.66-13.29v-.05c0-8.04,6.15-13.38,15.46-13.38h1.47v-2.36h6.01v23.03h5.58Zm-11.59-14.66h-2.74c-4.92,0-8.47,2.74-8.47,7.38v.05c0,4.49,3.55,7.24,8.47,7.24h2.74v-14.66Zm-9.98-15.46c0-1.8,1.47-3.07,3.36-3.07s3.31,1.28,3.31,3.07c0,1.99-1.56,3.12-3.31,3.12s-3.36-1.14-3.36-3.12Zm8.8,0c0-1.8,1.47-3.07,3.36-3.07s3.31,1.28,3.31,3.07c0,1.99-1.56,3.12-3.31,3.12s-3.36-1.14-3.36-3.12Z"/>
    <path class="cls-1" d="m111.15,228.53h8.51v6.05h-8.51v-6.05Z"/>
    <path class="cls-1" d="m118.72,228.53h8.51v6.05h-8.51v-6.05Z"/>
    <path class="cls-1" d="m143.45,228.53v6.05h-17.17v-6.05h5.11v-32.3h6.01v32.3h6.05Z"/>
    <path class="cls-1" d="m142.5,228.53h8.51v6.05h-8.51v-6.05Z"/>
    <path class="cls-1" d="m150.07,228.53h8.51v6.05h-8.51v-6.05Z"/>
    <path class="cls-1" d="m187.81,225.6v.05c0,8.47-5.34,14.14-13.34,14.14h-.05c-4.68,0-8.47-1.94-10.83-5.2h-5.96v-6.05h3.59c-.14-.9-.24-1.89-.24-2.89v-.05c0-8.7,5.39-14.52,13.43-14.52h.05c7.99,0,13.34,5.82,13.34,14.52Zm-6.05-.14c0-5.01-2.88-8.32-7.28-8.32h-.05c-4.45,0-7.38,3.31-7.38,8.32v.05c0,4.97,2.93,8.23,7.38,8.23h.05c4.4,0,7.28-3.31,7.28-8.23v-.05Z"/>
    <path class="cls-1" d="m205.22,228.53v6.05h-11.59v-38.35h6.01v32.3h5.58Z"/>
    <path class="cls-1" d="m204.27,228.53h8.51v6.05h-8.51v-6.05Z"/>
    <path class="cls-1" d="m211.84,228.53h8.51v6.05h-8.51v-6.05Z"/>
    <path class="cls-1" d="m219.4,228.53h8.51v6.05h-8.51v-6.05Z"/>
    <path class="cls-1" d="m262.3,228.53v6.05h-35.33v-6.05h23.65v-6.43c0-4.11-2.32-6.1-6.05-6.1h-13.15c-.95-1.32-1.89-3.45-1.94-6.01l7.14-13.76h7.38l-7.76,13.76h7.61c8.51,0,12.86,4.16,12.86,13.1v5.44h5.58Z"/>
    <path class="cls-1" d="m261.31,228.53h7.47v-20.67h6.01v20.67h8.42v6.05h-21.9v-6.05Zm2.79-28.94c0-1.8,1.47-3.07,3.36-3.07s3.31,1.28,3.31,3.07c0,1.99-1.56,3.12-3.31,3.12s-3.36-1.13-3.36-3.12Zm8.8,0c0-1.8,1.47-3.07,3.36-3.07s3.31,1.28,3.31,3.07c0,1.99-1.56,3.12-3.31,3.12s-3.36-1.13-3.36-3.12Z"/>
    <path class="cls-1" d="m282.31,228.53h8.51v6.05h-8.51v-6.05Z"/>
    <path class="cls-1" d="m289.87,228.53h8.51v6.05h-8.51v-6.05Z"/>
    <path class="cls-1" d="m297.44,228.53h8.51v6.05h-8.51v-6.05Z"/>
    <path class="cls-1" d="m335.18,225.6v.05c0,8.47-5.34,14.14-13.34,14.14h-.05c-4.68,0-8.47-1.94-10.83-5.2h-5.96v-6.05h3.59c-.14-.9-.24-1.89-.24-2.89v-.05c0-8.7,5.39-14.52,13.43-14.52h.05c7.99,0,13.34,5.82,13.34,14.52Zm-6.05-.14c0-5.01-2.88-8.32-7.28-8.32h-.05c-4.45,0-7.38,3.31-7.38,8.32v.05c0,4.97,2.93,8.23,7.38,8.23h.05c4.4,0,7.28-3.31,7.28-8.23v-.05Z"/>
  </g>
</svg>